<mxfile host="Electron" modified="2024-01-17T14:34:26.471Z" agent="Mozilla/5.0 (Windows NT 10.0; Win64; x64) AppleWebKit/537.36 (KHTML, like Gecko) draw.io/22.1.18 Chrome/120.0.6099.199 Electron/28.1.2 Safari/537.36" etag="k6GYTsMFVXSMf8QgLFCI" version="22.1.18" type="device">
  <diagram name="Page-1" id="Q-5brM_gJmdB622CX0cy">
    <mxGraphModel dx="1615" dy="968" grid="1" gridSize="10" guides="1" tooltips="1" connect="1" arrows="1" fold="1" page="1" pageScale="1" pageWidth="850" pageHeight="1100" math="0" shadow="0">
      <root>
        <mxCell id="0" />
        <mxCell id="1" parent="0" />
        <mxCell id="pXaeOl17bXfVCPOwYIwl-9" style="edgeStyle=orthogonalEdgeStyle;rounded=0;orthogonalLoop=1;jettySize=auto;html=1;entryX=0;entryY=0.5;entryDx=0;entryDy=0;" edge="1" parent="1" source="pXaeOl17bXfVCPOwYIwl-1" target="pXaeOl17bXfVCPOwYIwl-7">
          <mxGeometry relative="1" as="geometry" />
        </mxCell>
        <mxCell id="pXaeOl17bXfVCPOwYIwl-1" value="Start" style="ellipse;whiteSpace=wrap;html=1;" vertex="1" parent="1">
          <mxGeometry x="150" y="645" width="60" height="30" as="geometry" />
        </mxCell>
        <mxCell id="pXaeOl17bXfVCPOwYIwl-92" value="" style="edgeStyle=orthogonalEdgeStyle;rounded=0;orthogonalLoop=1;jettySize=auto;html=1;" edge="1" parent="1" source="pXaeOl17bXfVCPOwYIwl-2" target="pXaeOl17bXfVCPOwYIwl-5">
          <mxGeometry relative="1" as="geometry" />
        </mxCell>
        <mxCell id="pXaeOl17bXfVCPOwYIwl-2" value="Polling data packet&lt;br&gt;from server" style="shape=parallelogram;perimeter=parallelogramPerimeter;whiteSpace=wrap;html=1;fixedSize=1;" vertex="1" parent="1">
          <mxGeometry x="848.74" y="720" width="160" height="60" as="geometry" />
        </mxCell>
        <mxCell id="pXaeOl17bXfVCPOwYIwl-3" style="edgeStyle=orthogonalEdgeStyle;rounded=0;orthogonalLoop=1;jettySize=auto;html=1;exitX=0.5;exitY=1;exitDx=0;exitDy=0;" edge="1" parent="1" source="pXaeOl17bXfVCPOwYIwl-2" target="pXaeOl17bXfVCPOwYIwl-2">
          <mxGeometry relative="1" as="geometry" />
        </mxCell>
        <mxCell id="pXaeOl17bXfVCPOwYIwl-15" value="" style="edgeStyle=orthogonalEdgeStyle;rounded=0;orthogonalLoop=1;jettySize=auto;html=1;" edge="1" parent="1" source="pXaeOl17bXfVCPOwYIwl-5" target="pXaeOl17bXfVCPOwYIwl-12">
          <mxGeometry relative="1" as="geometry" />
        </mxCell>
        <mxCell id="pXaeOl17bXfVCPOwYIwl-21" value="" style="edgeStyle=orthogonalEdgeStyle;rounded=0;orthogonalLoop=1;jettySize=auto;html=1;" edge="1" parent="1" source="pXaeOl17bXfVCPOwYIwl-5" target="pXaeOl17bXfVCPOwYIwl-20">
          <mxGeometry relative="1" as="geometry" />
        </mxCell>
        <mxCell id="pXaeOl17bXfVCPOwYIwl-5" value="is data == &quot;UP&quot;" style="rhombus;whiteSpace=wrap;html=1;" vertex="1" parent="1">
          <mxGeometry x="848.74" y="820" width="160" height="70" as="geometry" />
        </mxCell>
        <mxCell id="pXaeOl17bXfVCPOwYIwl-76" value="" style="edgeStyle=orthogonalEdgeStyle;rounded=0;orthogonalLoop=1;jettySize=auto;html=1;" edge="1" parent="1" source="pXaeOl17bXfVCPOwYIwl-7" target="pXaeOl17bXfVCPOwYIwl-8">
          <mxGeometry relative="1" as="geometry" />
        </mxCell>
        <mxCell id="pXaeOl17bXfVCPOwYIwl-7" value="Initialize GPIO / Serial" style="rounded=0;whiteSpace=wrap;html=1;" vertex="1" parent="1">
          <mxGeometry x="250" y="640" width="145" height="40" as="geometry" />
        </mxCell>
        <mxCell id="pXaeOl17bXfVCPOwYIwl-84" style="edgeStyle=orthogonalEdgeStyle;rounded=0;orthogonalLoop=1;jettySize=auto;html=1;entryX=0;entryY=0.5;entryDx=0;entryDy=0;" edge="1" parent="1" source="pXaeOl17bXfVCPOwYIwl-8" target="pXaeOl17bXfVCPOwYIwl-82">
          <mxGeometry relative="1" as="geometry" />
        </mxCell>
        <mxCell id="pXaeOl17bXfVCPOwYIwl-8" value="Connect to WiFi" style="rounded=0;whiteSpace=wrap;html=1;" vertex="1" parent="1">
          <mxGeometry x="450" y="640" width="100" height="40" as="geometry" />
        </mxCell>
        <mxCell id="pXaeOl17bXfVCPOwYIwl-16" value="" style="edgeStyle=orthogonalEdgeStyle;rounded=0;orthogonalLoop=1;jettySize=auto;html=1;" edge="1" parent="1" source="pXaeOl17bXfVCPOwYIwl-12" target="pXaeOl17bXfVCPOwYIwl-13">
          <mxGeometry relative="1" as="geometry" />
        </mxCell>
        <mxCell id="pXaeOl17bXfVCPOwYIwl-24" value="" style="edgeStyle=orthogonalEdgeStyle;rounded=0;orthogonalLoop=1;jettySize=auto;html=1;" edge="1" parent="1" source="pXaeOl17bXfVCPOwYIwl-12" target="pXaeOl17bXfVCPOwYIwl-23">
          <mxGeometry relative="1" as="geometry" />
        </mxCell>
        <mxCell id="pXaeOl17bXfVCPOwYIwl-12" value="is data == &quot;DOWN&quot;" style="rhombus;whiteSpace=wrap;html=1;" vertex="1" parent="1">
          <mxGeometry x="848.74" y="920" width="160" height="70" as="geometry" />
        </mxCell>
        <mxCell id="pXaeOl17bXfVCPOwYIwl-17" value="" style="edgeStyle=orthogonalEdgeStyle;rounded=0;orthogonalLoop=1;jettySize=auto;html=1;" edge="1" parent="1" source="pXaeOl17bXfVCPOwYIwl-13" target="pXaeOl17bXfVCPOwYIwl-14">
          <mxGeometry relative="1" as="geometry" />
        </mxCell>
        <mxCell id="pXaeOl17bXfVCPOwYIwl-28" value="" style="edgeStyle=orthogonalEdgeStyle;rounded=0;orthogonalLoop=1;jettySize=auto;html=1;" edge="1" parent="1" source="pXaeOl17bXfVCPOwYIwl-13" target="pXaeOl17bXfVCPOwYIwl-26">
          <mxGeometry relative="1" as="geometry" />
        </mxCell>
        <mxCell id="pXaeOl17bXfVCPOwYIwl-13" value="is data == &quot;LEFT&quot;" style="rhombus;whiteSpace=wrap;html=1;" vertex="1" parent="1">
          <mxGeometry x="848.74" y="1020" width="160" height="70" as="geometry" />
        </mxCell>
        <mxCell id="pXaeOl17bXfVCPOwYIwl-19" value="" style="edgeStyle=orthogonalEdgeStyle;rounded=0;orthogonalLoop=1;jettySize=auto;html=1;" edge="1" parent="1" source="pXaeOl17bXfVCPOwYIwl-14" target="pXaeOl17bXfVCPOwYIwl-18">
          <mxGeometry relative="1" as="geometry" />
        </mxCell>
        <mxCell id="pXaeOl17bXfVCPOwYIwl-29" value="" style="edgeStyle=orthogonalEdgeStyle;rounded=0;orthogonalLoop=1;jettySize=auto;html=1;" edge="1" parent="1" source="pXaeOl17bXfVCPOwYIwl-14" target="pXaeOl17bXfVCPOwYIwl-27">
          <mxGeometry relative="1" as="geometry" />
        </mxCell>
        <mxCell id="pXaeOl17bXfVCPOwYIwl-14" value="is data == &quot;RIGHT&quot;" style="rhombus;whiteSpace=wrap;html=1;" vertex="1" parent="1">
          <mxGeometry x="848.74" y="1120" width="160" height="70" as="geometry" />
        </mxCell>
        <mxCell id="pXaeOl17bXfVCPOwYIwl-32" value="" style="edgeStyle=orthogonalEdgeStyle;rounded=0;orthogonalLoop=1;jettySize=auto;html=1;" edge="1" parent="1" source="pXaeOl17bXfVCPOwYIwl-18" target="pXaeOl17bXfVCPOwYIwl-30">
          <mxGeometry relative="1" as="geometry" />
        </mxCell>
        <mxCell id="pXaeOl17bXfVCPOwYIwl-65" value="" style="edgeStyle=orthogonalEdgeStyle;rounded=0;orthogonalLoop=1;jettySize=auto;html=1;" edge="1" parent="1" source="pXaeOl17bXfVCPOwYIwl-18" target="pXaeOl17bXfVCPOwYIwl-64">
          <mxGeometry relative="1" as="geometry" />
        </mxCell>
        <mxCell id="pXaeOl17bXfVCPOwYIwl-18" value="is data == &quot;STOP&quot;" style="rhombus;whiteSpace=wrap;html=1;" vertex="1" parent="1">
          <mxGeometry x="848.74" y="1220" width="160" height="70" as="geometry" />
        </mxCell>
        <mxCell id="pXaeOl17bXfVCPOwYIwl-20" value="Increase Y-Axis &lt;br&gt;Servo angle" style="rounded=0;whiteSpace=wrap;html=1;" vertex="1" parent="1">
          <mxGeometry x="1046.24" y="825" width="120" height="60" as="geometry" />
        </mxCell>
        <mxCell id="pXaeOl17bXfVCPOwYIwl-23" value="Decrease Y-Axis &lt;br&gt;Servo angle" style="rounded=0;whiteSpace=wrap;html=1;" vertex="1" parent="1">
          <mxGeometry x="1046.24" y="925" width="120" height="60" as="geometry" />
        </mxCell>
        <mxCell id="pXaeOl17bXfVCPOwYIwl-26" value="Decrease X-Axis &lt;br&gt;Servo angle" style="rounded=0;whiteSpace=wrap;html=1;" vertex="1" parent="1">
          <mxGeometry x="1046.24" y="1025" width="120" height="60" as="geometry" />
        </mxCell>
        <mxCell id="pXaeOl17bXfVCPOwYIwl-27" value="Increase X-Axis &lt;br&gt;Servo angle" style="rounded=0;whiteSpace=wrap;html=1;" vertex="1" parent="1">
          <mxGeometry x="1046.24" y="1125" width="120" height="60" as="geometry" />
        </mxCell>
        <mxCell id="pXaeOl17bXfVCPOwYIwl-30" value="Lock servo at the&amp;nbsp;&lt;br&gt;current angle" style="rounded=0;whiteSpace=wrap;html=1;" vertex="1" parent="1">
          <mxGeometry x="1046.24" y="1225" width="120" height="60" as="geometry" />
        </mxCell>
        <mxCell id="pXaeOl17bXfVCPOwYIwl-44" value="" style="edgeStyle=orthogonalEdgeStyle;rounded=0;orthogonalLoop=1;jettySize=auto;html=1;" edge="1" parent="1" source="pXaeOl17bXfVCPOwYIwl-33">
          <mxGeometry relative="1" as="geometry">
            <mxPoint x="1305.9605882352942" y="1160" as="targetPoint" />
          </mxGeometry>
        </mxCell>
        <mxCell id="pXaeOl17bXfVCPOwYIwl-33" value="" style="ellipse;whiteSpace=wrap;html=1;aspect=fixed;" vertex="1" parent="1">
          <mxGeometry x="1297.87" y="1101.88" width="16.25" height="16.25" as="geometry" />
        </mxCell>
        <mxCell id="pXaeOl17bXfVCPOwYIwl-70" value="" style="edgeStyle=orthogonalEdgeStyle;rounded=0;orthogonalLoop=1;jettySize=auto;html=1;" edge="1" parent="1" source="pXaeOl17bXfVCPOwYIwl-34" target="pXaeOl17bXfVCPOwYIwl-33">
          <mxGeometry relative="1" as="geometry" />
        </mxCell>
        <mxCell id="pXaeOl17bXfVCPOwYIwl-34" value="" style="shape=curlyBracket;whiteSpace=wrap;html=1;rounded=1;flipH=1;labelPosition=right;verticalLabelPosition=middle;align=left;verticalAlign=middle;" vertex="1" parent="1">
          <mxGeometry x="1166.24" y="860" width="80" height="500" as="geometry" />
        </mxCell>
        <mxCell id="pXaeOl17bXfVCPOwYIwl-36" value="" style="line;strokeWidth=2;html=1;" vertex="1" parent="1">
          <mxGeometry x="1166.24" y="950" width="40" height="10" as="geometry" />
        </mxCell>
        <mxCell id="pXaeOl17bXfVCPOwYIwl-38" value="" style="line;strokeWidth=2;html=1;" vertex="1" parent="1">
          <mxGeometry x="1166.24" y="1150" width="40" height="10" as="geometry" />
        </mxCell>
        <mxCell id="pXaeOl17bXfVCPOwYIwl-91" style="edgeStyle=orthogonalEdgeStyle;rounded=0;orthogonalLoop=1;jettySize=auto;html=1;entryX=0.5;entryY=1;entryDx=0;entryDy=0;" edge="1" parent="1" source="pXaeOl17bXfVCPOwYIwl-45" target="pXaeOl17bXfVCPOwYIwl-82">
          <mxGeometry relative="1" as="geometry">
            <Array as="points">
              <mxPoint x="1316" y="1440" />
              <mxPoint x="598" y="1440" />
            </Array>
          </mxGeometry>
        </mxCell>
        <mxCell id="pXaeOl17bXfVCPOwYIwl-45" value="Publish action to &lt;br&gt;server for logging" style="shape=parallelogram;perimeter=parallelogramPerimeter;whiteSpace=wrap;html=1;fixedSize=1;" vertex="1" parent="1">
          <mxGeometry x="1240" y="1165" width="152" height="60" as="geometry" />
        </mxCell>
        <mxCell id="pXaeOl17bXfVCPOwYIwl-89" value="" style="edgeStyle=orthogonalEdgeStyle;rounded=0;orthogonalLoop=1;jettySize=auto;html=1;" edge="1" parent="1" source="pXaeOl17bXfVCPOwYIwl-46" target="pXaeOl17bXfVCPOwYIwl-80">
          <mxGeometry relative="1" as="geometry" />
        </mxCell>
        <mxCell id="pXaeOl17bXfVCPOwYIwl-94" value="" style="edgeStyle=orthogonalEdgeStyle;rounded=0;orthogonalLoop=1;jettySize=auto;html=1;" edge="1" parent="1" source="pXaeOl17bXfVCPOwYIwl-46" target="pXaeOl17bXfVCPOwYIwl-60">
          <mxGeometry relative="1" as="geometry" />
        </mxCell>
        <mxCell id="pXaeOl17bXfVCPOwYIwl-46" value="Connected to WiFi&amp;nbsp;?" style="rhombus;whiteSpace=wrap;html=1;" vertex="1" parent="1">
          <mxGeometry x="640" y="625" width="177.5" height="70" as="geometry" />
        </mxCell>
        <mxCell id="pXaeOl17bXfVCPOwYIwl-93" value="" style="edgeStyle=orthogonalEdgeStyle;rounded=0;orthogonalLoop=1;jettySize=auto;html=1;" edge="1" parent="1" source="pXaeOl17bXfVCPOwYIwl-60" target="pXaeOl17bXfVCPOwYIwl-2">
          <mxGeometry relative="1" as="geometry" />
        </mxCell>
        <mxCell id="pXaeOl17bXfVCPOwYIwl-60" value="Publish &quot;READY&quot;&lt;br&gt;to server" style="shape=parallelogram;perimeter=parallelogramPerimeter;whiteSpace=wrap;html=1;fixedSize=1;" vertex="1" parent="1">
          <mxGeometry x="848.74" y="630" width="160" height="60" as="geometry" />
        </mxCell>
        <mxCell id="pXaeOl17bXfVCPOwYIwl-73" style="edgeStyle=orthogonalEdgeStyle;rounded=0;orthogonalLoop=1;jettySize=auto;html=1;entryX=0;entryY=0.5;entryDx=0;entryDy=0;" edge="1" parent="1" source="pXaeOl17bXfVCPOwYIwl-64" target="pXaeOl17bXfVCPOwYIwl-66">
          <mxGeometry relative="1" as="geometry" />
        </mxCell>
        <mxCell id="pXaeOl17bXfVCPOwYIwl-64" value="is data == &quot;SHOOT&quot;" style="rhombus;whiteSpace=wrap;html=1;" vertex="1" parent="1">
          <mxGeometry x="680" y="1320" width="160" height="70" as="geometry" />
        </mxCell>
        <mxCell id="pXaeOl17bXfVCPOwYIwl-106" value="" style="edgeStyle=orthogonalEdgeStyle;rounded=0;orthogonalLoop=1;jettySize=auto;html=1;" edge="1" parent="1" source="pXaeOl17bXfVCPOwYIwl-66" target="pXaeOl17bXfVCPOwYIwl-74">
          <mxGeometry relative="1" as="geometry" />
        </mxCell>
        <mxCell id="pXaeOl17bXfVCPOwYIwl-66" value="Spin 2 Motors&lt;br&gt;@Full speed&lt;br&gt;Different direction" style="rounded=0;whiteSpace=wrap;html=1;" vertex="1" parent="1">
          <mxGeometry x="863.74" y="1325" width="130" height="60" as="geometry" />
        </mxCell>
        <mxCell id="pXaeOl17bXfVCPOwYIwl-68" value="" style="line;strokeWidth=2;html=1;" vertex="1" parent="1">
          <mxGeometry x="1166.24" y="1050" width="40" height="10" as="geometry" />
        </mxCell>
        <mxCell id="pXaeOl17bXfVCPOwYIwl-69" value="" style="line;strokeWidth=2;html=1;" vertex="1" parent="1">
          <mxGeometry x="1166.24" y="1250" width="40" height="10" as="geometry" />
        </mxCell>
        <mxCell id="pXaeOl17bXfVCPOwYIwl-74" value="Lock servo at the&amp;nbsp;&lt;br&gt;current angle" style="rounded=0;whiteSpace=wrap;html=1;" vertex="1" parent="1">
          <mxGeometry x="1046.24" y="1325" width="120" height="60" as="geometry" />
        </mxCell>
        <mxCell id="pXaeOl17bXfVCPOwYIwl-90" style="edgeStyle=orthogonalEdgeStyle;rounded=0;orthogonalLoop=1;jettySize=auto;html=1;entryX=0.5;entryY=0;entryDx=0;entryDy=0;" edge="1" parent="1" source="pXaeOl17bXfVCPOwYIwl-80" target="pXaeOl17bXfVCPOwYIwl-82">
          <mxGeometry relative="1" as="geometry" />
        </mxCell>
        <mxCell id="pXaeOl17bXfVCPOwYIwl-80" value="Reconnect to WiFi" style="rounded=0;whiteSpace=wrap;html=1;" vertex="1" parent="1">
          <mxGeometry x="668.12" y="550" width="121.25" height="40" as="geometry" />
        </mxCell>
        <mxCell id="pXaeOl17bXfVCPOwYIwl-85" value="" style="edgeStyle=orthogonalEdgeStyle;rounded=0;orthogonalLoop=1;jettySize=auto;html=1;" edge="1" parent="1" source="pXaeOl17bXfVCPOwYIwl-82" target="pXaeOl17bXfVCPOwYIwl-46">
          <mxGeometry relative="1" as="geometry" />
        </mxCell>
        <mxCell id="pXaeOl17bXfVCPOwYIwl-82" value="" style="ellipse;whiteSpace=wrap;html=1;aspect=fixed;" vertex="1" parent="1">
          <mxGeometry x="590" y="651.8700000000001" width="16.25" height="16.25" as="geometry" />
        </mxCell>
        <mxCell id="pXaeOl17bXfVCPOwYIwl-95" value="False" style="text;html=1;strokeColor=none;fillColor=none;align=center;verticalAlign=middle;whiteSpace=wrap;rounded=0;" vertex="1" parent="1">
          <mxGeometry x="668.12" y="595" width="60" height="30" as="geometry" />
        </mxCell>
        <mxCell id="pXaeOl17bXfVCPOwYIwl-96" value="False" style="text;html=1;strokeColor=none;fillColor=none;align=center;verticalAlign=middle;whiteSpace=wrap;rounded=0;" vertex="1" parent="1">
          <mxGeometry x="920" y="890" width="60" height="30" as="geometry" />
        </mxCell>
        <mxCell id="pXaeOl17bXfVCPOwYIwl-97" value="False" style="text;html=1;strokeColor=none;fillColor=none;align=center;verticalAlign=middle;whiteSpace=wrap;rounded=0;" vertex="1" parent="1">
          <mxGeometry x="920" y="990" width="60" height="30" as="geometry" />
        </mxCell>
        <mxCell id="pXaeOl17bXfVCPOwYIwl-98" value="False" style="text;html=1;strokeColor=none;fillColor=none;align=center;verticalAlign=middle;whiteSpace=wrap;rounded=0;" vertex="1" parent="1">
          <mxGeometry x="920" y="1090" width="60" height="30" as="geometry" />
        </mxCell>
        <mxCell id="pXaeOl17bXfVCPOwYIwl-99" value="False" style="text;html=1;strokeColor=none;fillColor=none;align=center;verticalAlign=middle;whiteSpace=wrap;rounded=0;" vertex="1" parent="1">
          <mxGeometry x="920" y="1190" width="60" height="30" as="geometry" />
        </mxCell>
        <mxCell id="pXaeOl17bXfVCPOwYIwl-100" value="False" style="text;html=1;strokeColor=none;fillColor=none;align=center;verticalAlign=middle;whiteSpace=wrap;rounded=0;" vertex="1" parent="1">
          <mxGeometry x="780" y="1225" width="60" height="30" as="geometry" />
        </mxCell>
        <mxCell id="pXaeOl17bXfVCPOwYIwl-101" value="True" style="text;html=1;strokeColor=none;fillColor=none;align=center;verticalAlign=middle;whiteSpace=wrap;rounded=0;" vertex="1" parent="1">
          <mxGeometry x="800" y="630" width="60" height="30" as="geometry" />
        </mxCell>
        <mxCell id="pXaeOl17bXfVCPOwYIwl-102" value="True" style="text;html=1;strokeColor=none;fillColor=none;align=center;verticalAlign=middle;whiteSpace=wrap;rounded=0;" vertex="1" parent="1">
          <mxGeometry x="993.74" y="930" width="60" height="30" as="geometry" />
        </mxCell>
        <mxCell id="pXaeOl17bXfVCPOwYIwl-103" value="True" style="text;html=1;strokeColor=none;fillColor=none;align=center;verticalAlign=middle;whiteSpace=wrap;rounded=0;" vertex="1" parent="1">
          <mxGeometry x="993.74" y="1030" width="60" height="30" as="geometry" />
        </mxCell>
        <mxCell id="pXaeOl17bXfVCPOwYIwl-104" value="True" style="text;html=1;strokeColor=none;fillColor=none;align=center;verticalAlign=middle;whiteSpace=wrap;rounded=0;" vertex="1" parent="1">
          <mxGeometry x="993.74" y="1125" width="60" height="30" as="geometry" />
        </mxCell>
        <mxCell id="pXaeOl17bXfVCPOwYIwl-105" value="True" style="text;html=1;strokeColor=none;fillColor=none;align=center;verticalAlign=middle;whiteSpace=wrap;rounded=0;" vertex="1" parent="1">
          <mxGeometry x="993.74" y="1230" width="60" height="30" as="geometry" />
        </mxCell>
      </root>
    </mxGraphModel>
  </diagram>
</mxfile>
